HIERARCHY
ROOT Hips
{
	OFFSET -15.936317 98.213318 -3.140598
	CHANNELS 6 Xposition Yposition Zposition Xrotation Yrotation Zrotation
	JOINT Chest
	{
		OFFSET -3.600197 12.822876 2.960845
		CHANNELS 3 Xrotation Yrotation Zrotation
		JOINT Chest2
		{
			OFFSET -7.535387 18.441437 7.886552
			CHANNELS 3 Xrotation Yrotation Zrotation
			JOINT Chest3
			{
				OFFSET -3.773781 14.210815 2.575078
				CHANNELS 3 Xrotation Yrotation Zrotation
				JOINT Neck
				{
					OFFSET -2.364725 15.829163 6.516270
					CHANNELS 3 Xrotation Yrotation Zrotation
					JOINT Head
					{
						OFFSET 0.010231 9.109802 5.180647
						CHANNELS 3 Xrotation Yrotation Zrotation
						End Site
						{
							OFFSET 0.074718 9.126541 5.150576
						}
					}
				}
				JOINT LeftCollar
				{
					OFFSET -2.739534 10.117279 9.588528
					CHANNELS 3 Xrotation Yrotation Zrotation
					JOINT LeftUpArm
					{
						OFFSET 7.709089 -4.108063 15.237885
						CHANNELS 3 Xrotation Yrotation Zrotation
						JOINT LeftLowArm
						{
							OFFSET -15.838442 -14.551025 26.021900
							CHANNELS 3 Xrotation Yrotation Zrotation
							JOINT LeftHand
							{
								OFFSET -25.524338 -1.145355 15.752563
								CHANNELS 3 Xrotation Yrotation Zrotation
								End Site
								{
									OFFSET -5.578491 -0.250351 3.442818
								}
							}
						}
					}
				}
				JOINT RightCollar
				{
					OFFSET -6.113562 12.616287 2.294008
					CHANNELS 3 Xrotation Yrotation Zrotation
					JOINT RightUpArm
					{
						OFFSET 1.581104 11.676254 -13.025419
						CHANNELS 3 Xrotation Yrotation Zrotation
						JOINT RightLowArm
						{
							OFFSET -19.119488 27.759933 -1.888258
							CHANNELS 3 Xrotation Yrotation Zrotation
							JOINT RightHand
							{
								OFFSET -4.272846 20.335403 21.660313
								CHANNELS 3 Xrotation Yrotation Zrotation
								End Site
								{
									OFFSET -0.933872 4.444519 4.734070
								}
							}
						}
					}
				}
			}
		}
	}
	JOINT LeftUpLeg
	{
		OFFSET 7.276879 0.455521 6.874495
		CHANNELS 3 Xrotation Yrotation Zrotation
		JOINT LeftLowLeg
		{
			OFFSET 34.324615 -32.563164 2.334605
			CHANNELS 3 Xrotation Yrotation Zrotation
			JOINT LeftFoot
			{
				OFFSET 34.442112 -26.167038 -11.383988
				CHANNELS 3 Xrotation Yrotation Zrotation
				JOINT LeftToe
				{
					OFFSET 3.586147 -20.776730 10.725048
					CHANNELS 3 Xrotation Yrotation Zrotation
					End Site
					{
						OFFSET -4.818726 -11.173954 20.285007
					}
				}
			}
		}
	}
	JOINT RightUpLeg
	{
		OFFSET -7.276831 -0.455704 -6.874539
		CHANNELS 3 Xrotation Yrotation Zrotation
		JOINT RightLowLeg
		{
			OFFSET -26.686861 -36.657364 13.713526
			CHANNELS 3 Xrotation Yrotation Zrotation
			JOINT RightFoot
			{
				OFFSET 13.829185 -37.966797 -19.179565
				CHANNELS 3 Xrotation Yrotation Zrotation
				JOINT RightToe
				{
					OFFSET -9.737949 -15.946190 14.506836
					CHANNELS 3 Xrotation Yrotation Zrotation
					End Site
					{
						OFFSET -15.340740 -1.420277 17.949951
					}
				}
			}
		}
	}
}
MOTION
Frames: 16
Frame Time: 0.033333
-0.854116 105.205261 -1.111740 -6.668203 43.904466 -6.415647 -12.065726 -2.367773 -4.757531 6.351277 4.407699 4.230474 -14.903879 19.601596 18.302689 -8.953652 -13.769148 2.693517 -0.000003 0.000001 0.000001 21.242143 26.867492 -0.979846 44.285249 23.971614 22.434752 3.305335 0.151636 26.808329 -0.000002 -0.000002 -0.000000 -41.556520 -20.460078 17.579331 -66.963905 -50.772590 8.149975 -6.447264 -46.105887 33.076058 0.000003 -0.000001 -0.000002 7.120433 2.889989 -28.678055 -6.599115 -0.630466 4.411532 9.909075 -26.390528 5.065291 -0.000001 0.000001 0.000003 23.724939 6.540349 45.902700 -31.200550 5.462303 -42.992458 15.415938 0.841861 7.831929 0.000001 -0.000003 0.000000 
-0.857815 105.206779 -1.114640 -6.930895 43.885577 -6.413843 -11.906043 -2.423632 -4.509224 6.338401 4.452640 4.151974 -14.942220 19.732920 18.455198 -9.044972 -13.919963 2.542463 -0.000000 -0.000002 -0.000001 21.032919 26.380533 -0.818558 44.296324 24.332518 22.423888 3.559287 0.245358 27.014704 -0.000001 -0.000002 -0.000002 -41.336701 -20.287764 17.647662 -66.793588 -50.824308 8.558763 -6.600770 -46.104699 32.956448 0.000004 -0.000000 0.000001 7.142892 2.892656 -28.597159 -6.570491 -0.604971 4.332278 9.805029 -26.385362 5.002965 -0.000000 0.000001 0.000002 23.876507 6.616949 46.027402 -31.359424 5.502457 -43.106362 15.518043 0.945444 7.817716 0.000001 -0.000003 0.000001 
-0.869076 105.206200 -1.116685 -6.823180 44.012674 -6.317924 -11.986987 -2.392406 -4.642752 6.178533 4.330307 4.103454 -14.677368 19.682085 18.530950 -9.197750 -13.787825 2.318732 -0.000003 0.000001 0.000001 21.282709 26.118903 -0.920703 44.183999 24.275672 22.394010 3.429932 0.057496 26.663875 0.000000 0.000002 -0.000003 -41.317354 -20.205252 17.608417 -66.890023 -50.803541 8.454683 -6.004651 -45.930468 33.648961 -0.000000 0.000002 -0.000000 6.835337 2.792127 -28.890710 -6.473947 -0.443982 4.473100 9.632022 -26.759727 4.718863 -0.000003 0.000002 0.000000 23.762484 6.549014 45.907709 -31.337570 5.419294 -43.096912 15.493010 0.880370 7.774703 0.000001 -0.000005 0.000000 
-0.883028 105.204681 -1.118710 -6.892903 44.035217 -6.339207 -11.931815 -2.403635 -4.594311 6.222090 4.304002 4.185050 -14.696421 19.799841 18.486781 -9.116400 -13.963827 2.533471 -0.000001 -0.000000 -0.000001 21.311326 25.629061 -0.859064 44.367608 23.794972 22.369320 2.960395 0.125604 26.556433 -0.000001 -0.000000 -0.000001 -41.181540 -20.105748 17.793365 -66.846699 -50.767533 8.462291 -5.858462 -46.099156 33.706840 0.000003 0.000002 -0.000000 6.847312 2.821749 -28.837496 -6.364732 -0.400251 4.730838 9.798843 -26.552265 4.945004 -0.000001 -0.000001 -0.000002 23.790164 6.544379 45.993913 -31.264440 5.303736 -42.994063 15.639895 0.746770 7.870110 0.000001 -0.000003 0.000000 
-0.899854 105.205460 -1.124871 -6.975066 44.180672 -6.244994 -11.928480 -2.404287 -4.600368 6.320976 4.321940 4.226271 -14.760850 19.877409 18.473017 -9.073641 -14.081271 2.642335 -0.000003 -0.000002 -0.000002 21.501745 25.847579 -0.972536 44.160045 23.684900 22.229658 3.430890 0.389988 26.743017 0.000000 0.000002 -0.000001 -41.455895 -20.285744 17.361678 -67.289405 -50.602187 7.735094 -5.945774 -46.153931 34.086428 0.000002 -0.000000 -0.000003 6.811690 2.852601 -28.873266 -6.235301 -0.352968 4.977166 9.748020 -26.897423 4.766147 -0.000003 0.000000 0.000003 23.934166 6.535276 46.091660 -31.498742 5.431085 -43.127570 15.423175 0.816623 7.727040 0.000000 -0.000003 0.000000 
-0.924109 105.210434 -1.129304 -7.298450 44.031996 -6.193385 -11.650466 -2.387435 -4.464514 5.878185 4.368283 3.757724 -14.671890 19.831888 18.831878 -8.898934 -14.319538 2.976842 -0.000002 0.000001 0.000000 21.651261 26.208228 -1.091878 43.850009 23.531195 22.345032 3.551488 0.845535 27.200665 0.000000 0.000005 0.000001 -41.854573 -20.528362 17.023664 -66.984451 -50.599401 7.760146 -5.909091 -46.146476 34.069199 0.000004 0.000002 -0.000003 7.050108 2.858099 -28.670679 -6.311209 -0.437416 4.803433 9.575989 -26.542571 4.714067 -0.000000 0.000001 -0.000001 24.025069 6.627899 46.178048 -31.398345 5.411713 -43.093163 15.430219 0.687479 7.680275 0.000000 -0.000008 0.000001 
-0.951128 105.213539 -1.134113 -7.145816 43.958961 -6.185009 -11.821644 -2.343952 -4.673470 5.835423 4.451575 3.623242 -14.650378 19.679841 18.934261 -8.927370 -14.298940 2.982076 -0.000000 0.000001 -0.000001 21.751239 26.595517 -1.111672 43.814724 23.150002 22.504840 3.131266 1.130343 27.472689 0.000000 0.000007 0.000000 -41.891650 -20.600556 17.376297 -66.373169 -50.704449 8.403670 -5.522794 -46.010135 33.788147 -0.000000 0.000002 0.000002 6.910796 2.812597 -28.779248 -6.309098 -0.427042 4.694799 9.547740 -26.631500 4.638299 -0.000001 0.000001 0.000001 23.965597 6.628696 46.153695 -31.492018 5.522349 -43.182201 15.451112 0.597092 7.687469 -0.000000 -0.000004 0.000002 
-0.982498 105.220383 -1.142622 -7.151158 43.932258 -6.245284 -11.840665 -2.365797 -4.662171 5.838940 4.487695 3.590066 -14.620913 19.501561 18.779685 -8.569421 -14.332749 3.243666 -0.000003 -0.000002 -0.000002 21.721923 26.923270 -1.126404 43.943832 22.926923 22.400982 3.018708 1.315233 27.496043 0.000001 0.000003 -0.000002 -41.611763 -20.349329 17.950898 -66.649204 -50.743852 8.397946 -5.718500 -45.862545 33.595259 0.000001 -0.000002 -0.000001 6.686508 2.768690 -28.923133 -6.042092 -0.244376 5.070675 9.508823 -26.543230 4.620092 -0.000003 0.000001 0.000003 23.760263 6.569318 46.131647 -31.218295 5.309786 -43.064954 15.295778 0.760777 7.577533 -0.000000 -0.000003 -0.000001 
-1.013793 105.222336 -1.153556 -7.429732 43.986514 -6.152260 -12.075310 -2.302712 -4.912628 6.436665 4.373771 4.287745 -14.714471 19.653490 18.193194 -8.663199 -14.219268 3.278260 -0.000002 -0.000002 -0.000002 21.956692 26.504911 -1.228531 43.610215 23.132312 22.540867 2.955798 0.977154 27.378887 -0.000001 0.000003 0.000001 -41.905444 -20.563978 17.591620 -66.235835 -50.695819 8.723629 -5.714482 -46.149204 33.453338 -0.000000 0.000001 -0.000003 7.115489 2.886419 -28.575051 -6.437896 -0.520466 4.600104 9.501036 -26.412885 4.589660 -0.000001 0.000000 0.000003 24.222561 6.743437 46.407939 -31.740278 5.766647 -43.273842 15.699203 0.339561 7.913654 -0.000000 -0.000004 0.000001 
-1.046462 105.222969 -1.162296 -7.205112 43.720553 -6.143953 -12.346971 -2.242416 -5.156013 6.485244 4.490089 4.218855 -14.710581 19.521768 18.285349 -8.392498 -14.116991 3.369951 -0.000003 -0.000002 -0.000002 22.073732 26.642287 -1.382660 43.645616 23.110329 22.374037 3.061998 0.782650 27.195865 -0.000002 0.000002 0.000001 -41.929787 -20.380718 17.891330 -66.630879 -50.576137 8.187854 -5.546134 -46.031496 33.830740 0.000002 -0.000000 -0.000004 7.121419 2.882592 -28.671768 -6.552642 -0.562198 4.463635 9.258718 -26.216459 4.454771 -0.000001 0.000001 0.000002 24.314041 6.756357 46.343523 -32.006622 5.822228 -43.343247 15.626168 0.805088 7.957869 0.000001 -0.000003 0.000002 
-1.081560 105.227158 -1.169283 -7.496209 43.523208 -6.193910 -11.939648 -2.274108 -4.833470 6.725199 4.666223 4.273324 -15.118304 19.601830 18.132936 -8.216417 -14.247199 3.599135 -0.000001 -0.000000 -0.000001 22.269997 26.608761 -1.459509 43.579407 23.049214 22.430225 2.883552 0.303227 26.945653 -0.000003 -0.000002 0.000002 -42.074273 -20.504735 17.641928 -66.351210 -50.564597 8.426172 -5.388316 -46.105966 33.874907 -0.000001 0.000003 0.000001 7.188389 2.906536 -28.618571 -6.364542 -0.419010 4.776124 8.858326 -26.338722 4.047720 -0.000002 0.000000 0.000000 24.296634 6.773424 46.424666 -31.733284 5.636769 -43.255332 15.551712 0.993974 7.964621 0.000000 -0.000003 0.000001 
-1.117074 105.226181 -1.176613 -7.909434 43.651353 -6.173985 -11.472177 -2.355729 -4.345269 6.052833 4.560819 3.674419 -14.764828 19.625941 18.651440 -8.318171 -14.439711 3.492427 -0.000006 -0.000000 -0.000001 22.357089 26.251593 -1.460403 43.625853 23.313270 22.293799 3.031318 0.131551 26.673747 0.000001 0.000001 0.000002 -42.086919 -20.460786 17.622115 -66.881991 -50.511694 7.805445 -5.314949 -46.108251 34.140537 0.000003 0.000001 -0.000001 7.310065 3.003123 -28.454483 -6.176856 -0.419102 4.964741 8.811434 -26.155202 4.030413 0.000001 0.000000 0.000002 24.610468 6.891565 46.786707 -31.817866 5.716897 -43.238318 15.599377 0.701816 7.809320 0.000001 -0.000006 0.000001 
-1.149324 105.229805 -1.191407 -7.789674 43.676949 -6.173898 -11.660512 -2.346239 -4.482517 6.238218 4.564952 3.850579 -14.921761 19.806019 18.507887 -8.233011 -14.532713 3.625626 -0.000002 -0.000000 -0.000001 22.472058 25.754239 -1.401135 43.720287 23.111632 22.292750 2.745081 0.056633 26.446112 0.000000 -0.000002 -0.000000 -42.236725 -20.584343 17.377690 -66.706489 -50.490589 7.961700 -5.530779 -46.176170 33.841391 0.000003 -0.000004 -0.000003 7.198174 2.987249 -28.558469 -6.245063 -0.469406 4.858743 8.784888 -26.150411 4.004376 -0.000001 0.000002 -0.000003 24.570438 6.839226 46.690108 -31.970032 5.754664 -43.209812 15.551284 0.505694 7.681408 0.000001 -0.000004 0.000002 
-1.182100 105.233597 -1.201870 -8.014966 43.413932 -6.168747 -11.474968 -2.338182 -4.436298 6.479142 4.607281 4.063930 -14.958210 19.635766 18.209455 -8.091762 -14.385832 3.729953 0.000001 -0.000001 0.000000 22.389432 26.535128 -1.376409 43.668097 22.732464 22.409550 2.643201 0.143604 26.745457 -0.000002 0.000003 -0.000002 -41.961298 -20.510693 17.737484 -66.497062 -50.672651 8.321452 -5.650840 -46.285972 33.602888 -0.000002 -0.000001 -0.000002 7.366367 3.035220 -28.528655 -6.051111 -0.452728 4.962357 8.372326 -26.129563 3.615708 -0.000000 0.000001 -0.000000 24.753941 6.904705 46.792875 -31.862235 5.694889 -43.202306 15.737586 0.908470 7.971133 0.000002 -0.000008 0.000001 
-1.212014 105.237968 -1.208871 -8.151356 43.796430 -6.104060 -11.376962 -2.406114 -4.251640 5.889262 4.463316 3.627650 -14.528719 19.573796 18.603052 -8.102215 -14.673290 3.875540 -0.000001 0.000003 0.000001 22.272767 26.222404 -1.322765 43.844968 22.743143 22.228574 2.927679 0.481711 26.775388 0.000000 0.000002 -0.000001 -41.962049 -20.520354 17.308037 -67.207490 -50.644688 7.609569 -5.698643 -46.266882 33.857265 0.000003 -0.000001 -0.000002 7.453818 3.058517 -28.412714 -6.085999 -0.513979 5.084732 8.832785 -26.335720 4.032046 -0.000002 0.000000 0.000003 24.858193 6.927221 46.922512 -31.926459 5.630859 -43.157387 15.717776 0.867484 7.889676 -0.000000 -0.000006 0.000001 
-1.242064 105.241142 -1.213713 -7.889134 43.704967 -6.161977 -11.684407 -2.351410 -4.525747 5.907796 4.442895 3.668713 -14.466153 19.401086 18.534970 -7.924538 -14.642688 4.114498 -0.000003 -0.000001 0.000000 22.352209 26.648910 -1.490700 43.723671 22.991296 22.156090 3.246549 0.428440 26.709704 -0.000001 -0.000000 -0.000001 -42.017387 -20.484555 17.561617 -67.288155 -50.512859 7.389378 -5.910454 -46.292772 33.793860 0.000003 -0.000001 -0.000002 7.235751 2.991361 -28.540236 -5.966329 -0.432737 5.096105 8.616134 -26.383136 3.777000 -0.000003 -0.000001 0.000002 24.391188 6.752620 46.621273 -31.497062 5.532595 -42.973327 15.482584 0.769663 7.790991 -0.000000 -0.000003 0.000001 
